<?xml version="1.0" encoding="UTF-8"?>
<svg xmlns="http://www.w3.org/2000/svg" width="41" height="46" viewBox="0 0 41 46" fill="none">
  <g clip-path="url(#clip0_117_148401)">
    <path d="M35.3467 9.43783C35.3143 9.21182 35.1198 9.08264 34.9576 9.08264C34.7955 9.08264 31.5858 9.01808 31.5858 9.01808C31.5858 9.01808 28.8948 6.43486 28.6354 6.14424C28.3761 5.88591 27.8573 5.9505 27.6628 6.01508C27.6628 6.01508 27.144 6.17653 26.3011 6.43486C26.1714 5.98279 25.9444 5.43385 25.6526 4.85262C24.7124 3.04435 23.2859 2.07565 21.5999 2.07565C21.4702 2.07565 21.373 2.07565 21.2433 2.10793C21.1785 2.04336 21.146 1.97877 21.0812 1.94649C20.3355 1.17151 19.3953 0.784027 18.2605 0.816318C16.0883 0.880899 13.916 2.46313 12.1328 5.24011C10.9008 7.20983 9.96057 9.66392 9.66878 11.569C7.17231 12.344 5.42154 12.893 5.3567 12.893C4.09226 13.2804 4.05984 13.3127 3.89773 14.5075C3.83288 15.4116 0.525879 40.8888 0.525879 40.8888L28.2788 45.6678L40.3072 42.697C40.2748 42.697 35.3791 9.66392 35.3467 9.43783ZM24.9069 6.88692C24.2585 7.08067 23.5452 7.3067 22.7671 7.56502C22.7671 6.46714 22.605 4.9172 22.1187 3.62559C23.7722 3.88391 24.5827 5.75676 24.9069 6.88692ZM21.3081 7.98477C19.8492 8.43687 18.2605 8.92125 16.6718 9.40556C17.1257 7.69418 17.9687 6.01508 19.0062 4.88492C19.3953 4.46513 19.9464 4.01307 20.5624 3.75475C21.2109 5.01408 21.3406 6.79005 21.3081 7.98477ZM18.3253 2.26938C18.8441 2.26938 19.2656 2.36626 19.6222 2.62458C19.0386 2.91519 18.455 3.36726 17.9363 3.94849C16.5422 5.43385 15.4722 7.72647 15.0508 9.95449C13.7215 10.3743 12.4246 10.7618 11.2574 11.117C12.0356 7.59731 14.9859 2.36626 18.3253 2.26938Z" fill="#95BF47"></path>
    <path d="M34.9572 9.0862C34.7951 9.0862 31.5853 9.02164 31.5853 9.02164C31.5853 9.02164 28.8943 6.43839 28.635 6.14778C28.5377 6.0509 28.408 5.98633 28.2783 5.98633V45.6713L40.3067 42.7006C40.3067 42.7006 35.4111 9.66741 35.3787 9.44139C35.3138 9.21538 35.1193 9.0862 34.9572 9.0862Z" fill="#5E8E3E"></path>
    <path d="M21.5999 15.2546L20.2058 20.4533C20.2058 20.4533 18.6495 19.7429 16.8015 19.872C14.0781 20.0335 14.0781 21.7449 14.0781 22.1647C14.2402 24.4896 20.3679 25.0063 20.7245 30.4633C20.9839 34.758 18.455 37.6964 14.7589 37.9225C10.3496 38.1485 7.91797 35.5653 7.91797 35.5653L8.8582 31.5935C8.8582 31.5935 11.3222 33.4341 13.2675 33.3049C14.532 33.2403 15.0183 32.1748 14.9535 31.4644C14.7589 28.429 9.766 28.6228 9.44178 23.6178C9.18241 19.42 11.9383 15.1899 18.0335 14.8025C20.4003 14.641 21.5999 15.2546 21.5999 15.2546Z" fill="white"></path>
  </g>
  <defs>
    <clipPath id="clip0_117_148401">
      <rect width="39.6264" height="45.03" fill="white" transform="translate(0.525879 0.814453)"></rect>
    </clipPath>
  </defs>
</svg>
