<?xml version="1.0" encoding="UTF-8"?>
<svg xmlns="http://www.w3.org/2000/svg" width="133" height="37" viewBox="0 0 133 37" fill="none">
  <path fill-rule="evenodd" clip-rule="evenodd" d="M0.614563 5.1956H8.07702L12.9388 18.5593L18.032 5.1956H25.263L12.8983 36.141H5.74695L9.40412 26.5525L0.614563 5.1956ZM84.4483 4.72252C90.9774 4.72252 95.7378 9.77349 95.7378 16.6878C95.7378 23.602 90.9774 28.653 84.4483 28.653C82.0392 28.653 80.0099 28.0172 78.4615 26.7912L78.3613 26.7104L78.2757 26.6392L78.2758 36.1335H71.3081L71.3083 5.1956H77.4693L77.4693 7.50914L77.504 7.46932C79.0222 5.74261 81.3188 4.78702 84.1552 4.72567L84.305 4.72327L84.4483 4.72252ZM83.4044 10.9597C80.2655 10.9597 78.1336 13.2761 78.1336 16.6878C78.1336 20.0994 80.2655 22.4159 83.4044 22.4159C86.5844 22.4159 88.7227 20.1063 88.7227 16.6878C88.7227 13.2692 86.5844 10.9597 83.4044 10.9597ZM37.9534 4.72252C45.1429 4.72252 50.2393 9.67483 50.2393 16.6878C50.2393 23.6698 45.1259 28.653 37.9534 28.653C30.7406 28.653 25.62 23.6768 25.62 16.6878C25.62 9.66785 30.7236 4.72252 37.9534 4.72252ZM37.9534 10.9597C34.8035 10.9597 32.6351 13.2878 32.6351 16.6878C32.6351 20.0877 34.8035 22.4159 37.9534 22.4159C41.0622 22.4159 43.2242 20.0807 43.2242 16.6878C43.2242 13.2948 41.0622 10.9597 37.9534 10.9597ZM61.8462 0.10498L61.8461 5.1956H67.5797V11.1962L61.8461 11.196L61.8462 19.4789C61.8462 21.3318 62.7495 22.351 64.3933 22.4129L64.4735 22.4151L64.5547 22.4159C65.6696 22.4159 66.5141 22.1238 67.2695 21.4L67.34 21.3308L67.5279 21.1385H67.5797V27.7575L67.366 27.8594C66.2196 28.406 65.5123 28.653 63.5583 28.653C58.0335 28.653 54.9997 25.6542 54.8821 20.0559L54.8795 19.8855L54.8786 19.7155L54.8784 11.196L52.3571 11.1962V5.1956H55.0683L55.0684 0.10498H61.8462ZM110.964 4.72252C118.153 4.72252 123.249 9.67483 123.249 16.6878C123.249 23.6698 118.136 28.653 110.964 28.653C103.751 28.653 98.6301 23.6768 98.6301 16.6878C98.6301 9.66785 103.734 4.72252 110.964 4.72252ZM110.964 10.9597C107.814 10.9597 105.645 13.2878 105.645 16.6878C105.645 20.0877 107.814 22.4159 110.964 22.4159C114.072 22.4159 116.234 20.0807 116.234 16.6878C116.234 13.2948 114.072 10.9597 110.964 10.9597ZM128.929 28.653C131.037 28.653 132.747 26.9488 132.747 24.8465C132.747 22.7442 131.037 21.04 128.929 21.04C126.82 21.04 125.111 22.7442 125.111 24.8465C125.111 26.9488 126.82 28.653 128.929 28.653Z" fill="white"></path>
</svg>
